<svg width="24" height="24" viewBox="0 0 24 24" fill="none" xmlns="http://www.w3.org/2000/svg">
<path d="M7.67848 11.7773L7.67848 18.1333C7.67848 18.3632 7.76795 18.5836 7.92721 18.7462C8.08647 18.9087 8.30248 19 8.52771 19C8.75293 19 8.96894 18.9087 9.1282 18.7462C9.28746 18.5836 9.37693 18.3632 9.37693 18.1333L9.37693 11.7773C9.86876 11.5952 10.2937 11.2629 10.594 10.8256C10.8943 10.3883 11.0554 9.8673 11.0554 9.33333C11.0554 8.79936 10.8943 8.27834 10.594 7.84108C10.2937 7.40381 9.86876 7.07151 9.37693 6.88933L9.37693 5.86667C9.37693 5.63681 9.28746 5.41637 9.1282 5.25384C8.96894 5.09131 8.75294 5 8.52771 5C8.30248 5 8.08647 5.09131 7.92721 5.25384C7.76795 5.41637 7.67848 5.63681 7.67848 5.86667L7.67848 6.88933C7.18665 7.07151 6.76171 7.40381 6.4614 7.84108C6.1611 8.27834 6 8.79936 6 9.33333C6 9.8673 6.1611 10.3883 6.4614 10.8256C6.76171 11.2629 7.18665 11.5952 7.67848 11.7773ZM8.52771 8.46667C8.69567 8.46667 8.85986 8.51749 8.99951 8.61272C9.13917 8.70796 9.24801 8.84331 9.31229 9.00167C9.37657 9.16004 9.39338 9.3343 9.36062 9.50241C9.32785 9.67053 9.24697 9.82495 9.1282 9.94616C9.00943 10.0674 8.85812 10.1499 8.69338 10.1833C8.52865 10.2168 8.3579 10.1996 8.20272 10.134C8.04754 10.0684 7.91491 9.95735 7.8216 9.81483C7.72829 9.6723 7.67848 9.50474 7.67848 9.33333C7.67848 9.10348 7.76795 8.88304 7.92721 8.72051C8.08647 8.55797 8.30248 8.46667 8.52771 8.46667ZM13.6231 16.244L13.6231 18.1333C13.6231 18.3632 13.7125 18.5836 13.8718 18.7462C14.0311 18.9087 14.2471 19 14.4723 19C14.6975 19 14.9135 18.9087 15.0728 18.7462C15.2321 18.5836 15.3215 18.3632 15.3215 18.1333L15.3215 16.244C15.8134 16.0618 16.2383 15.7295 16.5386 15.2923C16.8389 14.855 17 14.334 17 13.8C17 13.266 16.8389 12.745 16.5386 12.3077C16.2383 11.8705 15.8134 11.5382 15.3215 11.356L15.3215 5.86667C15.3215 5.63681 15.2321 5.41637 15.0728 5.25384C14.9135 5.09131 14.6975 5 14.4723 5C14.2471 5 14.0311 5.09131 13.8718 5.25384C13.7125 5.41637 13.6231 5.63681 13.6231 5.86667L13.6231 11.356C13.1312 11.5382 12.7063 11.8705 12.406 12.3077C12.1057 12.745 11.9446 13.266 11.9446 13.8C11.9446 14.334 12.1057 14.855 12.406 15.2923C12.7063 15.7295 13.1312 16.0618 13.6231 16.244ZM14.4723 12.9333C14.6403 12.9333 14.8044 12.9842 14.9441 13.0794C15.0838 13.1746 15.1926 13.31 15.2569 13.4683C15.3212 13.6267 15.338 13.801 15.3052 13.9691C15.2724 14.1372 15.1916 14.2916 15.0728 14.4128C14.954 14.534 14.8027 14.6166 14.638 14.65C14.4732 14.6835 14.3025 14.6663 14.1473 14.6007C13.9921 14.5351 13.8595 14.424 13.7662 14.2815C13.6729 14.139 13.6231 13.9714 13.6231 13.8C13.6231 13.5701 13.7125 13.3497 13.8718 13.1872C14.0311 13.0246 14.2471 12.9333 14.4723 12.9333Z" fill="#2C3B45"/>
</svg>
