<svg width="20" height="20" viewBox="0 0 20 20" fill="none" xmlns="http://www.w3.org/2000/svg">
<path d="M15.8332 5.41665H13.3332V4.58331C13.3332 3.92027 13.0698 3.28439 12.6009 2.81555C12.1321 2.34671 11.4962 2.08331 10.8332 2.08331H9.1665C8.50346 2.08331 7.86758 2.34671 7.39874 2.81555C6.9299 3.28439 6.6665 3.92027 6.6665 4.58331V5.41665H4.1665C3.50346 5.41665 2.86758 5.68004 2.39874 6.14888C1.9299 6.61772 1.6665 7.2536 1.6665 7.91665V15.4166C1.6665 16.0797 1.9299 16.7156 2.39874 17.1844C2.86758 17.6533 3.50346 17.9166 4.1665 17.9166H15.8332C16.4962 17.9166 17.1321 17.6533 17.6009 17.1844C18.0698 16.7156 18.3332 16.0797 18.3332 15.4166V7.91665C18.3332 7.2536 18.0698 6.61772 17.6009 6.14888C17.1321 5.68004 16.4962 5.41665 15.8332 5.41665ZM8.33317 4.58331C8.33317 4.3623 8.42097 4.15034 8.57725 3.99406C8.73353 3.83778 8.94549 3.74998 9.1665 3.74998H10.8332C11.0542 3.74998 11.2661 3.83778 11.4224 3.99406C11.5787 4.15034 11.6665 4.3623 11.6665 4.58331V5.41665H8.33317V4.58331ZM16.6665 15.4166C16.6665 15.6377 16.5787 15.8496 16.4224 16.0059C16.2661 16.1622 16.0542 16.25 15.8332 16.25H4.1665C3.94549 16.25 3.73353 16.1622 3.57725 16.0059C3.42097 15.8496 3.33317 15.6377 3.33317 15.4166V10.8333C5.45505 11.6751 7.71708 12.1077 9.99984 12.1083C12.2825 12.1069 14.5444 11.6743 16.6665 10.8333V15.4166ZM16.6665 9.00831C14.5652 9.93146 12.295 10.4081 9.99984 10.4081C7.70467 10.4081 5.43451 9.93146 3.33317 9.00831V7.91665C3.33317 7.69563 3.42097 7.48367 3.57725 7.32739C3.73353 7.17111 3.94549 7.08331 4.1665 7.08331H15.8332C16.0542 7.08331 16.2661 7.17111 16.4224 7.32739C16.5787 7.48367 16.6665 7.69563 16.6665 7.91665V9.00831Z" fill="#2C3B45" fill-opacity="0.5"/>
</svg>
