<svg width="20" height="20" viewBox="0 0 20 20" fill="none" xmlns="http://www.w3.org/2000/svg">
<path d="M10.2502 10.1834C10.6948 9.79847 11.0515 9.32242 11.2959 8.78754C11.5403 8.25266 11.6668 7.67145 11.6668 7.08335C11.6668 5.97829 11.2278 4.91848 10.4464 4.13708C9.66504 3.35567 8.60523 2.91669 7.50016 2.91669C6.39509 2.91669 5.33529 3.35567 4.55388 4.13708C3.77248 4.91848 3.3335 5.97829 3.3335 7.08335C3.33349 7.67145 3.46 8.25266 3.70443 8.78754C3.94887 9.32242 4.30551 9.79847 4.75016 10.1834C3.58361 10.7116 2.59388 11.5646 1.89931 12.6405C1.20474 13.7163 0.834723 14.9694 0.833496 16.25C0.833496 16.471 0.921293 16.683 1.07757 16.8393C1.23385 16.9956 1.44582 17.0834 1.66683 17.0834C1.88784 17.0834 2.0998 16.9956 2.25609 16.8393C2.41237 16.683 2.50016 16.471 2.50016 16.25C2.50016 14.9239 3.02695 13.6522 3.96463 12.7145C4.90231 11.7768 6.17408 11.25 7.50016 11.25C8.82624 11.25 10.098 11.7768 11.0357 12.7145C11.9734 13.6522 12.5002 14.9239 12.5002 16.25C12.5002 16.471 12.588 16.683 12.7442 16.8393C12.9005 16.9956 13.1125 17.0834 13.3335 17.0834C13.5545 17.0834 13.7665 16.9956 13.9228 16.8393C14.079 16.683 14.1668 16.471 14.1668 16.25C14.1656 14.9694 13.7956 13.7163 13.101 12.6405C12.4064 11.5646 11.4167 10.7116 10.2502 10.1834ZM7.50016 9.58335C7.00571 9.58335 6.52236 9.43673 6.11124 9.16203C5.70011 8.88732 5.37968 8.49688 5.19046 8.04006C5.00125 7.58325 4.95174 7.08058 5.0482 6.59563C5.14466 6.11068 5.38276 5.66522 5.7324 5.31559C6.08203 4.96596 6.52748 4.72785 7.01244 4.63139C7.49739 4.53493 8.00006 4.58444 8.45687 4.77366C8.91369 4.96287 9.30413 5.28331 9.57884 5.69443C9.85354 6.10555 10.0002 6.5889 10.0002 7.08335C10.0002 7.7464 9.73677 8.38228 9.26793 8.85112C8.79909 9.31996 8.1632 9.58335 7.50016 9.58335ZM15.6168 9.85002C16.1501 9.24946 16.4985 8.50757 16.62 7.71364C16.7415 6.91971 16.6309 6.10758 16.3016 5.37502C15.9723 4.64246 15.4383 4.02068 14.7639 3.58454C14.0895 3.1484 13.3033 2.91647 12.5002 2.91669C12.2791 2.91669 12.0672 3.00448 11.9109 3.16076C11.7546 3.31705 11.6668 3.52901 11.6668 3.75002C11.6668 3.97103 11.7546 4.183 11.9109 4.33928C12.0672 4.49556 12.2791 4.58335 12.5002 4.58335C13.1632 4.58335 13.7991 4.84675 14.2679 5.31559C14.7368 5.78443 15.0002 6.42031 15.0002 7.08335C14.999 7.52105 14.8829 7.95077 14.6635 8.32954C14.4442 8.7083 14.1292 9.02284 13.7502 9.24169C13.6266 9.31295 13.5234 9.41474 13.4505 9.5373C13.3775 9.65987 13.3372 9.7991 13.3335 9.94169C13.33 10.0832 13.3626 10.2232 13.4282 10.3486C13.4938 10.474 13.5903 10.5806 13.7085 10.6584L14.0335 10.875L14.1418 10.9334C15.1463 11.4098 15.9938 12.1633 16.5843 13.1053C17.1749 14.0472 17.484 15.1383 17.4752 16.25C17.4752 16.471 17.563 16.683 17.7192 16.8393C17.8755 16.9956 18.0875 17.0834 18.3085 17.0834C18.5295 17.0834 18.7415 16.9956 18.8978 16.8393C19.054 16.683 19.1418 16.471 19.1418 16.25C19.1486 14.9712 18.8283 13.7119 18.2114 12.5917C17.5944 11.4716 16.7013 10.5278 15.6168 9.85002Z" fill="#2C3B45" fill-opacity="0.5"/>
</svg>
