<svg width="104" height="92" viewBox="0 0 104 92" fill="none" xmlns="http://www.w3.org/2000/svg">
<path fill-rule="evenodd" clip-rule="evenodd" d="M32.8141 45.2614C30.9697 45.4937 30.9459 45.542 31.935 47.0721C32.3376 47.6956 33.2261 49.7683 33.9093 51.6786C35.7522 56.8327 35.4354 56.6844 42.9224 55.8859C46.9325 55.4585 54.5901 55.2302 63.5536 55.2709C71.3937 55.3061 77.8079 55.2568 77.8079 55.1608C77.8079 54.8435 72.6704 51.1853 68.3971 48.4594C64.9389 46.2535 63.6186 45.7019 60.9601 45.3539C57.7786 44.9375 35.9589 44.8656 32.8141 45.2614ZM19.0556 46.1001C15.8726 47.1153 12.8403 49.2705 9.37565 52.98C7.19413 55.3162 6.3602 56.528 6.81336 56.7045C7.18323 56.8483 9.53084 56.971 12.0312 56.9775C16.4353 56.9886 25.9592 57.6166 31.8517 58.2844L34.7318 58.6113L33.2801 57.139C32.4055 56.2519 31.4888 54.4794 30.9722 52.6778C30.5007 51.0335 29.7872 49.0452 29.3866 48.2588C28.0509 45.6395 23.4901 44.6861 19.0556 46.1001ZM4.42956 59.4274C5.35869 59.9518 28.1114 63.0001 31.0951 63.0001C34.7779 63.0001 27.1863 60.6392 19.7993 59.4872C15.8964 58.8788 3.37053 58.83 4.42956 59.4274ZM98.9592 64.7786C97.497 66.0644 97.1316 66.6934 97.3815 67.4919C97.6438 68.3307 98.1188 68.5313 99.8437 68.5313C102.681 68.5313 103.377 67.678 102.425 65.3679C102.031 64.41 101.517 63.5084 101.285 63.3651C101.052 63.2218 100.006 63.8579 98.9592 64.7786ZM0.532577 65.6727C-0.225996 67.5729 -0.179392 69.3901 0.70561 72.3484C1.11167 73.706 1.44633 75.6244 1.44931 76.6109C1.45228 77.598 1.80133 79.5888 2.22474 81.0344C3.25402 84.5508 4.65217 85.382 10.2676 85.8154C21.3542 86.6722 35.9322 88.7485 37.4429 89.6868C41.8689 92.4343 68.4328 92.8089 88.6837 90.4089C95.0994 89.6481 100.128 88.8038 100.503 88.4231C100.935 87.9847 100.029 87.1364 99.1272 87.1364C97.8282 87.1364 97.4276 86.267 98.559 85.9024C99.0722 85.7375 99.8908 85.1552 100.378 84.6091C101.24 83.6431 101.227 83.6165 99.8749 83.6165C99.1084 83.6165 97.2794 82.8039 95.793 81.8032C92.489 79.5792 91.3422 79.4243 82.1927 79.9674L74.9263 80.3983L72.0958 82.7617C70.0843 84.4412 68.8156 85.13 67.7109 85.1426C66.8561 85.1522 62.3469 85.2884 57.6908 85.4458C50.1948 85.6993 49.1298 85.6354 48.3946 84.8897C47.9379 84.4266 47.5641 83.611 47.5641 83.078C47.5641 81.4352 46.87 82.017 45.7534 84.5955C43.2427 90.3948 37.3967 89.5988 35.245 83.1644C34.4646 80.8308 34.5251 75.3895 35.3531 73.4179C36.772 70.0403 40.136 68.3699 42.7301 69.7552C44.6954 70.8041 44.4421 69.7718 42.1688 67.4663C39.8951 65.1603 38.1474 64.9425 35.6143 66.6497C33.5047 68.0717 31.8616 71.308 31.4169 74.9174L31.0748 77.6945L28.5358 77.3546C25.1664 76.9031 11.4957 74.0857 10.1436 73.5642C9.45547 73.2992 8.85407 72.3775 8.4495 70.9681C7.49707 67.6543 5.62741 65.0114 4.23521 65.0114C3.59067 65.0114 2.76119 65.381 2.39182 65.8326C1.78397 66.5753 1.69027 66.5395 1.40915 65.4554L1.09828 64.2572L0.532577 65.6727ZM46.5725 65.0728C44.0528 65.828 43.923 66.1664 45.5472 67.7444C46.9042 69.0628 47.404 69.192 52.6158 69.5727C60.3175 70.1343 67.7754 70.1349 68.1175 69.5732C68.2741 69.3167 67.8968 68.5358 67.2791 67.8379C66.3777 66.8191 65.2284 66.3998 61.4465 65.7099C55.7007 64.6619 48.9127 64.3713 46.5725 65.0728ZM77.3131 65.5329C71.1027 66.178 70.8667 66.2725 70.8667 68.1054C70.8667 70.5396 71.8865 73.4114 73.193 74.6564C74.2237 75.6379 75.0373 75.8154 79.3057 75.9894C85.8889 76.2574 93.7865 75.2668 95.4137 73.969C96.5139 73.091 96.6482 72.6098 96.6482 69.5541C96.6482 66.7693 96.4851 66.0528 95.7806 65.741C94.4885 65.1698 82.1451 65.0305 77.3131 65.5329ZM6.40135 71.4769C7.45493 75.3232 6.63488 82.467 5.08104 82.9814C4.75728 83.0885 4.08796 82.55 3.59364 81.7841C2.25647 79.7145 2.28721 71.1043 3.63727 69.5918C4.8148 68.2718 5.68641 68.8662 6.40135 71.4769ZM101.11 73.8518C97.6101 75.3755 96.553 78.6535 98.9463 80.5627C100.274 81.6217 101.888 81.8892 102.919 81.2205C103.623 80.7639 104.307 75.564 103.854 74.1168C103.465 72.8728 103.378 72.8643 101.11 73.8518ZM52.5221 75.9039C51.0996 76.4505 50.5389 77.7916 50.5389 80.6482V83.522L53.0169 83.8679C54.3794 84.058 57.662 84.0484 60.3106 83.8473C64.6796 83.5149 65.2552 83.3505 66.5096 82.0788C69.1705 79.3801 67.7635 76.8463 63.3464 76.3811C58.2049 75.8401 53.2564 75.6218 52.5221 75.9039ZM20.6838 81.6705C22.67 82.0034 24.1202 82.4393 23.9065 82.6405C23.6928 82.8411 21.1192 83.1649 18.188 83.3595C12.586 83.7311 12.2905 83.6205 13.3807 81.5544C13.943 80.4893 13.5899 80.4838 20.6838 81.6705ZM83.1268 85.4921C82.098 85.6007 80.5362 85.5992 79.6562 85.4881C78.7757 85.3769 79.6175 85.2879 81.5264 85.2899C83.4352 85.2925 84.1551 85.383 83.1268 85.4921Z" fill="#2C3B45"/>
<path fill-rule="evenodd" clip-rule="evenodd" d="M43.252 0.947101C35.3434 3.00672 28.1509 7.19931 22.5849 12.9943C20.9687 14.677 19.7568 16.0543 19.8922 16.0543C20.784 16.0543 44.2255 3.05747 47.6706 0.653158C48.6373 -0.0216566 48.6373 -0.0246702 47.6706 0.0125124C47.1363 0.0326111 45.1479 0.453175 43.252 0.947101ZM60.4873 4.30911C47.5751 9.27098 24.8678 18.544 17.7516 21.7608C15.1008 22.9592 14.8053 23.2672 13.4861 26.2092C11.6848 30.2254 11.2834 31.6308 11.9364 31.6308C12.7026 31.6308 50.1363 12.236 57.6282 7.95703C63.3469 4.69099 67.3795 2.04399 66.6428 2.03947C66.5074 2.03896 63.7374 3.05998 60.4873 4.30911ZM69.3512 10.7357C60.4233 14.1288 52.2646 17.412 41.5285 21.9312C27.9889 27.6306 13.8249 33.6939 12.0881 34.534C10.1833 35.4546 9.99571 35.9289 9.31713 41.5294L9 44.1422L12.3377 42.6198C19.513 39.3467 58.4949 19.3314 66.7447 14.6851C74.3337 10.4106 78.7863 7.5842 77.9688 7.56108C77.8334 7.55757 73.9555 8.98608 69.3512 10.7357ZM77.2302 17.7747C61.1679 23.8637 10.2537 45.2864 9.13739 46.4255C9.02118 46.5435 9.08125 47.7876 9.26986 49.1895L9.61358 51.7385L11.4134 50.2934C15.3268 47.1515 19.8203 45.6366 27.2478 44.9552C30.8209 44.6276 31.5896 44.2824 50.8848 34.3501C73.5502 22.6828 88.1973 14.4504 86.0694 14.574C85.8124 14.5891 81.8345 16.0292 77.2302 17.7747ZM90.7722 22.9326C79.9371 26.8508 47.4682 40.016 40.7898 43.2001L37.8352 44.6085L45.2217 44.6492L52.6083 44.6899L67.2391 36.9308C87.5 26.1861 96.3757 20.9066 90.7722 22.9326ZM91.0184 33.1844C88.0392 34.2828 80.1912 37.3645 73.5783 40.0321C63.2642 44.1925 61.7238 44.9477 62.7446 45.3416C63.3991 45.5949 64.6622 46.1179 65.5515 46.5043C66.4409 46.8912 67.5375 47.2073 67.9881 47.2073C69.3113 47.2073 92.9286 34.3039 95.9428 31.9343C97.2768 30.8856 97.1941 30.9067 91.0184 33.1844ZM87.3251 45.1597C81.7729 47.3113 76.3571 49.4498 75.29 49.9126L73.3498 50.7532L75.1408 51.9948C76.1256 52.6782 77.1947 53.2369 77.5163 53.2369C78.3263 53.2369 95.4248 43.6955 97.069 42.3263C97.8037 41.7143 98.1834 41.2214 97.9126 41.2309C97.6417 41.24 92.8774 43.0082 87.3251 45.1597ZM91.0184 54.5423C87.7683 55.793 84.9294 56.9969 84.7103 57.2175C84.4907 57.438 85.2663 57.7501 86.4338 57.9109C88.2401 58.1596 88.9965 57.9485 91.5109 56.4939C99.9424 51.6169 99.8252 51.1532 91.0184 54.5423Z" fill="#FFEB79"/>
</svg>
