<svg width="172" height="119" viewBox="0 0 172 119" fill="none" xmlns="http://www.w3.org/2000/svg">
<path fill-rule="evenodd" clip-rule="evenodd" d="M138.196 8.54215C123.771 13.4313 85.7725 27.1481 53.7536 39.022C3.81422 57.5407 -3.64397 60.9022 1.2987 62.6557C4.46745 63.7829 10.5832 66.1112 14.8893 67.8311C19.1954 69.5532 24.5052 70.96 26.6868 70.96C33.0935 70.96 147.445 13.5252 162.039 2.97757C168.498 -1.69013 168.098 -1.59618 138.196 8.54215ZM120.314 61.8461C93.4308 71.423 67.2082 80.9418 62.0414 83.0017L52.6472 86.7435L61.3189 92.27C66.0876 95.3117 71.2639 97.7988 72.8209 97.7988C76.743 97.7988 159.531 55.3287 167.492 49.2341C171.05 46.51 172.888 44.3159 171.577 44.3584C170.265 44.3987 147.197 52.2691 120.314 61.8461ZM138.196 103.609C122.46 109.176 108.714 114.535 107.653 115.517C106.59 116.499 110.345 117.888 115.998 118.603C124.744 119.71 128.406 118.771 140.581 112.296C181.405 90.5881 180.837 88.5238 138.196 103.609Z" fill="#FFEB79"/>
</svg>
