<svg width="825" height="348" viewBox="0 0 825 348" fill="none" xmlns="http://www.w3.org/2000/svg">
<path fill-rule="evenodd" clip-rule="evenodd" d="M384.888 26.9976C369.158 42.0785 349.96 59.9494 342.223 66.7128L328.157 79.009L318.73 79.0816L309.305 79.1541L298.566 88.377L287.826 97.5999L279.049 92.9885C274.223 90.4537 260.216 80.5766 247.925 71.0394L225.578 53.7005L207.81 67.0257L190.041 80.3523H177.742H165.444L161.112 85.7455C153.726 94.9416 134.167 111.092 125.544 115.113C121.031 117.218 102.371 125.758 84.0782 134.09C65.7863 142.421 51.0197 149.438 51.264 149.683C51.5083 149.927 69.7975 142.677 91.9059 133.573C114.016 124.468 132.828 116.779 133.713 116.484C134.596 116.189 141.808 109.904 149.738 102.516C168.729 84.8214 169.861 83.9671 172.427 85.4044C174.16 86.3742 172.907 88.3528 165.402 96.493C154.941 107.842 156.169 107.586 170.022 95.5326C175.371 90.8768 180.46 87.0687 181.33 87.0687C182.981 87.0687 180.985 89.5927 169.726 101.73C162.742 109.261 163.982 108.529 179.262 96.1089C190.322 87.1184 222.951 62.8804 223.924 62.9328C224.368 62.9556 226.432 64.4708 228.508 66.299L232.286 69.6236L229.574 73.4345C227.448 76.4219 227.213 77.6067 228.482 78.9204C231.127 81.6566 218.405 92.1167 187.144 112.906C171.639 123.219 159.557 131.446 160.296 131.19C161.034 130.934 173.841 124.53 188.754 116.956C214.591 103.837 216.267 103.188 224.297 103.188H232.726L229.4 106.346C227.571 108.083 216.107 115.747 203.925 123.38C165.296 147.58 93.6121 194.839 102.571 190.2C106.746 188.037 170.246 151.363 180.298 145.309C192.722 137.825 193.86 137.276 192.562 139.378C192.133 140.074 202.459 135.512 215.511 129.241C229.986 122.285 239.723 118.323 240.477 119.077C241.574 120.175 232.463 125.962 179.425 157.846C175.179 160.398 171.706 162.696 171.706 162.953C171.706 163.209 188.111 155.602 208.16 146.049C228.209 136.496 244.807 128.871 245.042 129.108C245.277 129.343 234.309 137.279 220.67 146.742C207.03 156.207 195.87 164.217 195.87 164.543C195.87 164.87 196.324 164.882 196.877 164.569C197.43 164.256 204.529 160.18 212.65 155.511C238.918 140.413 273.701 123.958 292.318 117.823L310.235 111.919L319.871 102.123L329.507 92.3249L334.391 94.3667L339.273 96.4084L351.378 79.9856C359.391 69.1118 370.991 56.0848 385.702 41.4364L407.925 19.3128L413.414 24.6456L418.905 29.9797L413.483 34.8249L408.062 39.6687L411.41 42.816L414.758 45.9633L409.467 50.7332C404.988 54.7711 403.46 57.6967 399.497 69.8332L394.816 84.1645L397.704 86.8027C399.29 88.2548 408.346 95.6038 417.827 103.134C427.307 110.666 434.855 117.034 434.603 117.288C434.349 117.541 431.123 118.973 427.434 120.469C422.322 122.543 421.525 123.208 424.082 123.266C428.916 123.373 468.674 119.173 471.067 118.302C472.175 117.898 469.546 116.901 465.226 116.087L457.372 114.606L447.457 100.166C442.005 92.2241 437.892 85.7254 438.317 85.7254C438.744 85.7254 443.682 89.9567 449.29 95.1283C458.203 103.345 463.013 106.37 463.013 103.755C463.013 103.328 458.011 96.2257 451.896 87.9713C445.783 79.7169 439.301 70.8487 437.494 68.2629L434.208 63.5614L440.413 68.9345C443.825 71.8897 450.583 77.835 455.429 82.1456C460.277 86.4561 464.86 89.6021 465.614 89.1346C466.398 88.651 462.019 81.5331 455.423 72.5654C449.062 63.9188 443.227 55.9384 442.453 54.8302C441.68 53.722 448.379 60.0689 457.341 68.9345L473.634 85.0538L471.093 94.1208C469.695 99.1084 468.785 103.188 469.071 103.188C469.356 103.188 472.458 99.1648 475.964 94.2484C483.91 83.1074 485.376 85.223 477.695 96.7456L472.057 105.203L481.295 96.1747L490.532 87.1466L502.614 87.9485L514.696 88.7491L546.243 107.605C563.594 117.973 579.393 127.57 581.353 128.928C583.313 130.286 585.352 131.397 585.885 131.397C586.418 131.397 578.924 125.32 569.233 117.891C559.542 110.463 551.613 103.984 551.613 103.493C551.613 103.003 554.785 99.3233 558.66 95.3163C566.297 87.4233 565.442 87.4381 554.847 95.3795C551.088 98.1963 547.564 100.501 547.015 100.501C546.466 100.501 549.54 96.4259 553.848 91.4437C562.206 81.7802 562.294 81.756 546.852 93.3202C543.761 95.6347 541.633 96.4259 540.783 95.5756C539.934 94.7253 544.711 90.2092 554.413 82.695L569.351 71.1241L575.133 73.9342L580.914 76.7456L590.946 70.4887C596.462 67.0486 601.552 64.2331 602.257 64.2331C602.962 64.2331 605.153 66.5005 607.125 69.2703L610.71 74.3076L607.468 76.6758C605.353 78.2219 604.46 79.9305 604.895 81.5989C605.349 83.3344 604.424 84.9006 602.013 86.4817C599.7 87.9982 598.747 89.5497 599.277 90.9333C599.803 92.3047 598.65 94.2592 596.025 96.4433L591.959 99.8297L610.035 123.886C619.977 137.118 628.513 148.3 629.006 148.737C630.42 149.99 629.053 146.897 618.099 124.029C612.441 112.22 608.162 102.909 608.592 103.337C609.02 103.767 615.491 112.22 622.969 122.123C630.448 132.025 636.236 139.221 635.831 138.113C635.427 137.005 631.138 127.787 626.3 117.628C621.46 107.469 617.716 99.1581 617.978 99.1581C618.24 99.1581 623.412 105.807 629.473 113.934C635.534 122.061 640.697 128.71 640.948 128.71C641.444 128.71 634.098 112.319 629.414 102.973C625.461 95.0826 627.307 97.1365 640.661 115.49L652.057 131.149L649.963 139.466C648.455 145.458 648.287 148.041 649.364 148.707C650.447 149.378 650.345 151.582 648.994 156.709C647.137 163.751 647.145 163.794 650.51 165.328C653.495 166.688 653.799 167.457 653.096 171.85C652.658 174.591 651.964 177.71 651.552 178.782C650.998 180.228 655.59 182.84 669.337 188.898C679.53 193.39 704.934 204.594 725.792 213.798C746.651 223.001 763.716 230.351 763.716 230.132C763.716 229.912 748.161 219.893 729.148 207.868C710.136 195.841 693.977 185.447 693.239 184.769C691.629 183.288 694.421 184.452 724.786 197.899C756.174 211.801 759.689 213.306 759.689 212.856C759.689 212.646 743.127 201.937 722.886 189.062C702.645 176.185 686.222 165.512 686.389 165.341C686.557 165.172 701.759 171.722 720.172 179.895C756.583 196.06 759.689 197.379 759.689 196.688C759.689 196.432 744.033 186.323 724.898 174.22C705.763 162.118 690.262 152.063 690.45 151.873C690.64 151.683 708.248 160.521 729.581 171.513C766.971 190.779 768.475 191.421 771.369 189.32C773.02 188.123 774.381 186.84 774.395 186.471C774.408 186.101 749.317 170.385 718.639 151.546L662.857 117.292L637.861 85.0538C624.112 67.3226 611.544 51.1993 609.93 49.2234L606.997 45.6315L594.025 55.08C583.634 62.6494 580.396 64.3661 577.744 63.7092C575.923 63.2579 573.075 62.5661 571.413 62.1712C568.989 61.5936 565.159 64.3768 551.999 76.2755C542.984 84.4278 535.282 91.0985 534.886 91.0985C534.489 91.0985 530.691 88.4106 526.444 85.1263L518.723 79.1541L500.462 77.4025L482.2 75.6509L448.967 38.0393C430.69 17.353 415.228 0.237009 414.61 0.00327956C413.991 -0.229106 400.615 11.9181 384.888 26.9976ZM375.23 58.191C368.619 63.1867 360.988 71.7205 360.988 74.1195C360.988 74.4634 362.876 74.043 365.183 73.1833C367.696 72.2484 371.827 68.3878 375.481 63.5614C378.836 59.1287 382.157 54.7469 382.86 53.8227C384.926 51.108 383.595 51.871 375.23 58.191ZM419.589 86.0612C431.143 100.176 431.091 100.489 418.619 91.797C412.394 87.4596 407.129 83.7924 406.917 83.6474C406.211 83.1692 409.73 76.3225 410.682 76.3225C411.196 76.3225 415.205 80.7056 419.589 86.0612ZM270.789 112.013C266.958 115.287 263.401 117.964 262.885 117.964C262.368 117.964 258.103 113.479 253.408 107.995C248.711 102.514 243.984 98.1318 242.903 98.2568C241.823 98.383 240.698 97.3044 240.404 95.8604C239.912 93.4546 240.244 93.5137 244.381 96.5683C246.865 98.4018 251.614 101.62 254.937 103.718L260.978 107.535L253.259 99.6135C244.937 91.0743 243.319 88.1191 249.231 92.2604C251.261 93.6829 256.85 97.4172 261.649 100.56L270.375 106.275L266.37 101.709C264.169 99.1971 259.638 94.2041 256.302 90.6109C251.058 84.9611 252.099 85.5642 263.997 95.0705L277.757 106.062L270.789 112.013ZM323.297 89.2636C323.835 89.7458 314.62 98.1426 310.081 101.307C307.911 102.82 286.904 110.139 286.406 109.556C286.254 109.378 291.647 104.268 298.388 98.2003C310.633 87.1802 310.654 87.1694 316.688 87.9619C320.011 88.3985 322.984 88.9842 323.297 89.2636ZM505.97 101.516C501.909 106.42 491.189 119.077 482.145 129.645C473.102 140.212 466.233 148.859 466.879 148.859C467.525 148.859 468.833 147.919 469.785 146.77C473.575 142.203 476.121 141.937 482.954 145.403C488.74 148.337 567.465 169.713 568.535 168.641C568.766 168.412 566.3 163.564 563.055 157.87C559.812 152.176 557.345 147.516 557.574 147.516C557.803 147.516 562.629 149.631 568.3 152.217C573.971 154.803 578.879 156.919 579.206 156.919C581.934 156.919 576.838 152.615 558.442 139.378C546.693 130.925 537.235 123.851 537.423 123.659C537.612 123.467 547.874 128.153 560.228 134.07C572.581 139.988 583.248 144.829 583.932 144.829C587.002 144.829 584.226 142.178 572.056 133.487C564.873 128.357 550.539 118.061 540.202 110.605C521.886 97.3957 514.516 92.3598 513.736 92.521C513.525 92.564 510.031 96.6126 505.97 101.516ZM558.278 101.229C556.237 103.689 554.676 102.194 576.448 118.63L593.899 131.805L577.811 115.482C568.962 106.503 561.335 99.1581 560.859 99.1581C560.384 99.1581 559.223 100.09 558.278 101.229ZM336.472 129.724C315.973 141.215 299.378 150.791 299.592 151.006C299.807 151.221 315.794 145.389 335.12 138.047C365.902 126.354 370.72 124.874 373.98 126.115L377.702 127.531L369.812 134.455L361.923 141.38L365.566 142.871L369.209 144.36L361.743 150.744C357.636 154.254 354.276 157.6 354.276 158.179C354.276 158.758 357.448 160.159 361.324 161.291C365.199 162.425 379.041 166.739 392.082 170.881C405.122 175.023 416.198 178.411 416.696 178.411C417.194 178.411 410.151 172.286 401.041 164.798C391.933 157.311 383.627 150.39 382.583 149.418C381.538 148.447 390.881 150.916 403.343 154.906C415.806 158.896 426.125 162.038 426.277 161.886C426.428 161.736 419.91 156.181 411.794 149.544C403.676 142.908 396.451 136.772 395.737 135.911C395.021 135.05 400.896 137.015 408.791 140.28C416.686 143.545 423.293 146.054 423.474 145.858C424.073 145.208 377.134 109.237 375.419 109.032C374.497 108.922 356.97 118.234 336.472 129.724ZM343.537 119.264C341.691 119.862 335.398 121.708 329.551 123.364C319.813 126.122 317.432 127.571 301.136 140.638C291.354 148.484 283.516 155.068 283.716 155.269C284.032 155.586 347.296 119.81 348.795 118.465C349.656 117.694 347.254 118.059 343.537 119.264ZM527.199 126.089C536.251 129.548 538.481 131.035 541.531 135.647C543.518 138.65 544.333 140.617 543.343 140.018C534.227 134.491 515.042 121.994 515.676 121.994C516.118 121.994 521.303 123.837 527.199 126.089ZM144.542 144.519C134.419 150.147 126.316 154.933 126.538 155.155C126.971 155.588 164.613 138.942 165.731 137.824C166.1 137.455 165.625 136.508 164.676 135.719C163.389 134.651 158.261 136.892 144.542 144.519ZM535.892 142.642C542.294 145.561 547.773 149.262 551.301 153.045C554.311 156.275 556.625 159.067 556.444 159.249C556.261 159.431 549.744 157.666 541.962 155.327L527.81 151.073L525.739 144.593C524.6 141.029 524.184 138.113 524.814 138.113C525.443 138.113 530.428 140.152 535.892 142.642ZM593.339 156.047C595.068 157.503 623.761 178.091 625.446 179.084C627.783 180.461 628.065 180.871 617.033 166.844C611.345 159.612 608.478 157.083 605.233 156.434C600.684 155.523 592.398 155.254 593.339 156.047ZM577.837 166.657C579.856 173.448 582.068 174.9 599.042 180.58C608.396 183.712 616.049 186.026 616.049 185.726C616.049 185.426 608.817 180.333 599.979 174.408C583.176 163.142 576.049 160.649 577.837 166.657ZM537.559 168.807C538.274 169.462 543.237 173.148 548.588 176.997C556.956 183.016 560.379 184.519 573.062 187.748C581.17 189.813 587.492 190.995 587.108 190.373C586.725 189.752 581.888 185.546 576.36 181.026C566.856 173.254 565.709 172.706 555.269 170.944C549.198 169.919 542.436 168.75 540.244 168.347C537.884 167.913 536.79 168.1 537.559 168.807ZM248.896 179.135C237.821 183.168 224.039 188.041 218.271 189.966C212.501 191.889 207.984 193.667 208.231 193.914C208.478 194.161 218.475 191.91 230.447 188.911L252.213 183.459L264.985 193.739C272.01 199.393 277.758 203.655 277.758 203.21C277.758 202.766 276.049 199.875 273.959 196.787C271.87 193.699 269.63 190.265 268.983 189.157C268.334 188.049 272.851 191.348 279.02 196.49C290.808 206.315 291.044 205.816 281.062 192.18C277.681 187.563 275.264 183.784 275.689 183.784C276.116 183.784 282.646 186.876 290.2 190.655C297.755 194.434 303.633 197.21 303.264 196.826C301.395 194.878 270.477 171.703 269.809 171.75C269.383 171.779 259.971 175.104 248.896 179.135ZM550.27 189.713C550.27 190.048 554.349 192.536 559.332 195.244C567.248 199.543 586.296 205.944 587.523 204.716C588.744 203.494 573.146 195.159 565.934 193.18C553.386 189.739 550.27 189.048 550.27 189.713ZM610.92 198.621C610.326 200.227 609.89 203.439 609.952 205.759C610.012 208.08 609.485 210.385 608.78 210.883C608 211.433 608.187 212.62 609.252 213.906C610.218 215.07 610.481 216.013 609.836 216.002C607.717 215.965 605.888 214.043 606.025 211.993C606.228 208.927 603.998 205.099 602.536 206.003C601.822 206.444 601.586 207.368 602.011 208.056C602.436 208.743 602.274 209.306 601.653 209.306C601.031 209.306 600.604 210.969 600.704 213C600.803 215.031 600.219 217.194 599.406 217.804C598.351 218.595 598.408 219.109 599.604 219.594C600.528 219.969 601.282 220.866 601.282 221.586C601.282 222.308 600.678 222.524 599.94 222.067C598.061 220.905 598.261 223.208 600.208 225.157C601.461 226.41 600.716 226.769 596.852 226.769C594.121 226.769 591.987 226.315 592.111 225.761C592.61 223.534 590.166 214.679 589.052 214.679C588.06 214.679 587.14 222.215 587.7 225.761C587.787 226.315 587.273 226.769 586.557 226.769C585.843 226.769 585.596 227.65 586.008 228.727C587.261 231.993 581.107 232.523 560.011 230.972C549.116 230.17 528.914 229.11 515.116 228.616L490.03 227.717L489.158 222.548C488.099 216.271 485.894 214.429 485.675 219.637C485.587 221.713 485.58 223.842 485.659 224.37C485.737 224.898 484.922 224.992 483.847 224.578C482.772 224.165 481.961 223.431 482.047 222.947C482.428 220.779 479.994 210.518 478.946 209.869C478.304 209.473 477.734 209.637 477.676 210.234C477.62 210.832 477.279 212.53 476.916 214.008C476.555 215.485 476.189 218.357 476.104 220.388C475.984 223.241 475.282 224.082 473.022 224.082C470.697 224.082 470.169 223.392 470.462 220.729C470.664 218.886 470.279 217.037 469.605 216.62C468.933 216.204 468.382 214.389 468.382 212.585C468.382 208.464 465.754 208.228 465.539 212.329C465.45 213.992 465.45 215.805 465.539 216.358C465.626 216.912 465.134 217.366 464.444 217.366C463.755 217.366 463.464 218.877 463.799 220.724C464.14 222.607 463.771 224.082 462.96 224.082C462.163 224.082 461.846 224.624 462.254 225.284C463.466 227.247 459.432 228.111 444.907 229C428.945 229.976 422.961 229.066 425.47 226.042C426.789 224.453 426.657 224.082 424.774 224.082C423.262 224.082 422.722 223.38 423.226 222.067C423.65 220.959 423.339 220.052 422.533 220.052C421.567 220.052 421.638 219.366 422.74 218.037C423.876 216.669 423.933 216.023 422.92 216.023C422.1 216.023 421.043 213.605 420.57 210.649C420.098 207.694 419.196 205.276 418.566 205.276C417.016 205.276 415.551 211.498 416.512 214.005C416.938 215.115 416.78 216.023 416.162 216.023C415.543 216.023 415.249 217.836 415.507 220.052C415.855 223.049 415.424 224.082 413.823 224.082C412.064 224.082 411.975 224.449 413.343 226.097C414.736 227.778 414.554 228.112 412.242 228.112C410.36 228.112 409.584 227.357 409.827 225.761C410.024 224.468 409.428 221.295 408.502 218.709L406.82 214.008L405.751 218.709C405.163 221.295 404.742 224.499 404.816 225.827C404.903 227.393 404.184 228.074 402.77 227.763C401.571 227.498 400.772 226.465 400.997 225.468C401.219 224.472 400.615 223.157 399.654 222.547C398.243 221.651 398.261 221.433 399.747 221.416C401.092 221.401 401.205 220.931 400.163 219.675C399.378 218.728 398.424 216.236 398.043 214.137C397.663 212.037 396.991 209.958 396.549 209.516C395.232 208.198 393.459 212.132 393.832 215.54C394.023 217.284 393.671 218.709 393.048 218.709C392.425 218.709 392.127 220.523 392.385 222.739C392.704 225.482 392.268 226.769 391.017 226.769C390.006 226.769 389.279 226.315 389.399 225.761C389.838 223.754 387.516 217.366 386.349 217.366C385.269 217.366 384.768 220.505 384.794 227.105C384.798 228.398 384.242 229.455 383.556 229.455C382.87 229.455 382.682 230.06 383.138 230.799C383.595 231.537 382.713 232.142 381.177 232.142C378.934 232.142 378.507 231.484 378.996 228.784C379.331 226.937 379.04 225.425 378.351 225.425C377.661 225.425 377.097 223.648 377.097 221.475C377.097 218.055 374.59 213.986 374.309 216.951C374.253 217.549 373.916 219.246 373.56 220.724C373.204 222.202 372.847 225.376 372.768 227.776C372.688 230.177 372.083 232.142 371.424 232.142C370.767 232.142 370.573 232.702 370.995 233.386C371.418 234.071 368.282 235.043 364.028 235.55C359.772 236.055 351.931 237.193 346.603 238.079C338.716 239.39 336.79 239.362 336.241 237.93C335.87 236.963 334.49 236.153 333.175 236.131C330.909 236.092 330.907 236.018 333.133 234.721C336.288 232.882 336.109 230.799 332.797 230.799C329.613 230.799 329.329 229.093 332.126 226.769C335.006 224.378 334.612 222.408 331.455 223.411C328.366 224.391 327.746 222.077 330.784 220.909C333.729 219.778 333.242 217.796 329.797 216.894C326.832 216.118 326.828 216.086 329.461 214.094C331.805 212.322 331.848 212.073 329.819 212.036C328.327 212.008 327.785 211.281 328.284 209.978C328.735 208.804 328.296 207.945 327.236 207.92C326.04 207.892 326.308 207.201 328.02 205.905C329.453 204.821 329.977 203.933 329.184 203.933C328.39 203.933 327.409 202.664 327.003 201.111C326.213 198.087 323.4 198.779 323.4 201.997C323.4 203.063 322.646 203.952 321.722 203.976C320.724 204.002 321.028 204.766 322.474 205.862C323.925 206.964 324.355 208.045 323.54 208.549C322.79 209.012 322.518 210.287 322.937 211.379C323.496 212.834 323.03 213.153 321.2 212.57C318.84 211.818 318.832 211.881 321.051 213.711C324.124 216.244 324.022 217.366 320.716 217.366C317.577 217.366 317.118 219.786 320.044 220.909C323.059 222.067 322.473 224.504 319.373 223.693C317.896 223.307 316.688 223.538 316.688 224.208C316.688 224.877 315.359 225.425 313.735 225.425C311.531 225.425 311.168 225.039 312.307 223.9C313.444 222.762 313.316 221.86 311.805 220.347C310.242 218.783 310.157 218.083 311.437 217.292C312.696 216.514 312.542 215.711 310.798 213.966C308.627 211.794 308.395 211.806 306.646 214.18C305.628 215.563 305.292 216.874 305.901 217.095C306.509 217.315 306.699 218.667 306.325 220.102C305.95 221.535 305.109 222.378 304.453 221.973C303.8 221.568 303.264 221.878 303.264 222.66C303.264 223.441 304.02 224.143 304.942 224.217C306.862 224.37 300.908 226.432 297.961 226.634C296.509 226.735 296.402 226.382 297.54 225.243C298.677 224.105 298.563 223.217 297.09 221.742C295.573 220.224 295.477 219.334 296.67 217.895C297.677 216.681 297.728 216.023 296.815 216.023C296.04 216.023 295.184 214.965 294.914 213.672C294.495 211.678 294.153 211.806 292.663 214.514C291.33 216.935 291.287 217.943 292.486 218.685C293.651 219.405 293.534 220.195 292.039 221.69C290.527 223.204 290.4 224.105 291.537 225.243C292.675 226.382 292.483 226.769 290.779 226.769C288.107 226.769 287.841 228.261 290.108 230.53C291.361 231.783 291.212 232.142 289.437 232.142C288.182 232.142 287.078 231.688 286.983 231.134C286.889 230.581 286.669 228.747 286.493 227.062C285.69 219.332 282.271 222.355 281.889 231.134C281.813 232.855 280.65 233.485 277.55 233.485C273.399 233.485 273.363 233.431 275.744 230.799C278.091 228.203 278.09 228.112 275.684 228.112C273.747 228.112 273.552 227.753 274.805 226.5C277.088 224.215 276.801 222.743 274.066 222.719C272.058 222.701 272.01 222.508 273.731 221.396C274.944 220.611 275.108 220.086 274.143 220.073C273.237 220.062 272.78 218.814 273.093 217.195C273.395 215.624 272.979 213.097 272.167 211.58C270.744 208.918 270.628 208.909 268.878 211.305C267.538 213.14 267.451 214.255 268.548 215.577C269.642 216.896 269.615 217.366 268.446 217.366C267.574 217.366 267.233 217.97 267.69 218.709C268.146 219.448 267.899 220.052 267.139 220.052C266.381 220.052 266.108 220.959 266.533 222.067C266.962 223.185 266.572 224.082 265.656 224.082C264.359 224.082 264.363 224.515 265.676 226.097C267.055 227.76 266.93 228.112 264.961 228.112C262.715 228.112 262.708 228.258 264.851 230.628C267.001 233.006 266.976 233.183 264.387 233.86C262.881 234.255 261.649 234.029 261.649 233.359C261.649 232.69 260.762 232.142 259.677 232.142C258.477 232.142 258.008 231.355 258.478 230.127C258.93 228.949 258.494 228.104 257.43 228.092C256.021 228.076 256.066 227.771 257.622 226.749C258.885 225.918 259.134 225.049 258.293 224.418C257.554 223.865 256.761 222.302 256.53 220.948C256.299 219.594 255.605 217.176 254.986 215.575C254.145 213.395 253.712 213.171 253.261 214.679C252.93 215.788 251.982 218.747 251.155 221.257C250.328 223.767 249.97 226.335 250.36 226.966C250.75 227.596 250.354 228.112 249.482 228.112C248.266 228.112 248.268 228.559 249.489 230.033C251.993 233.051 246.251 235.732 243.399 232.878C242.256 231.735 241.968 230.799 242.76 230.799C243.55 230.799 244.197 230.194 244.197 229.455C244.197 228.716 243.217 228.112 242.02 228.112C240.236 228.112 240.143 227.748 241.512 226.097C242.825 224.515 242.829 224.082 241.533 224.082C240.617 224.082 240.226 223.185 240.656 222.067C241.08 220.959 240.843 220.052 240.128 220.052C239.413 220.052 238.955 219.598 239.111 219.045C239.734 216.833 237.465 209.306 236.176 209.306C235.03 209.306 234.067 215.409 234.642 219.045C234.729 219.6 234.122 220.052 233.294 220.052C232.252 220.052 232.303 220.676 233.458 222.067C234.56 223.396 234.631 224.082 233.665 224.082C232.859 224.082 232.548 224.989 232.972 226.097C233.487 227.439 232.913 228.119 231.252 228.132C229.193 228.15 229.103 228.37 230.734 229.403C234.466 231.764 231.413 231.905 216.678 230.054C208.556 229.035 201.383 228.179 200.74 228.156C200.096 228.132 200.32 227.205 201.24 226.097C202.604 224.453 202.527 224.082 200.825 224.082C199.344 224.082 198.856 223.008 199.144 220.388C199.367 218.357 198.956 216.314 198.231 215.851C197.505 215.386 196.749 213.09 196.549 210.748C195.592 199.49 191.343 207.051 191.401 219.911C191.419 224.055 191.256 224.247 189.618 222.005C188.626 220.649 187.815 218.41 187.815 217.03C187.815 215.65 187.211 214.894 186.473 215.351C185.735 215.808 185.131 217.354 185.131 218.788C185.131 220.223 184.49 221.396 183.709 221.396C182.928 221.396 182.577 220.926 182.933 220.351C183.287 219.777 182.458 215.998 181.087 211.955C178.351 203.877 177.174 204.715 176.695 215.085C176.516 218.971 175.779 221.381 174.768 221.386C173.868 221.392 173.48 222.301 173.905 223.411C174.442 224.809 173.813 225.425 171.85 225.425C170.294 225.425 169.134 224.971 169.274 224.418C169.796 222.328 167.399 211.993 166.39 211.993C165.141 211.993 163.295 222.418 164.267 223.99C164.636 224.589 148.187 225.413 127.714 225.822C89.9782 226.577 72.8005 228.213 45.6137 233.641C29.4979 236.859 4.44826 243.701 1.32846 245.736C-0.503949 246.931 -0.466362 247.019 1.60097 246.371C8.59367 244.186 55.4738 239.249 91.1609 236.94C101.499 236.271 98.9953 237.604 83.7775 240.869C71.5292 243.498 41.8267 252.901 38.8063 255.105C37.096 256.353 37.143 256.462 39.1191 255.826C42.0214 254.894 79.6429 247.726 95.8594 245.016C128.157 239.618 161.453 239.144 198.79 243.55C207.89 244.623 218.356 245.849 222.047 246.27L228.759 247.04L224.732 244.981L220.705 242.922L224.732 243.541C294.17 254.225 333.285 263.537 391.088 283.14C397.675 285.374 403.28 286.986 403.543 286.723C404.871 285.396 368.31 269.095 344.348 260.332L327.034 253.999L342.334 251.144C463.582 228.511 603.24 234.349 740.27 267.777C762.163 273.118 803.511 285.111 818.629 290.507C830.344 294.687 825.18 291.506 809.046 284.603C781.519 272.827 748 262.128 707.557 252.21C703.516 251.219 701.956 250.22 702.448 248.938C702.837 247.923 702.434 246.851 701.553 246.556C700.672 246.262 699.884 244.864 699.803 243.448C699.544 238.944 697.632 232.112 696.421 231.363C695.419 230.743 694.68 235.501 694.891 241.209C694.96 243.057 692.653 243.404 690.554 241.86C689.815 241.318 689.249 239.664 689.294 238.187C689.34 236.709 688.924 234.877 688.367 234.115C687.811 233.353 687.046 231.012 686.665 228.913C686.285 226.813 685.612 224.734 685.171 224.292C683.854 222.974 682.08 226.908 682.453 230.316C682.644 232.06 682.292 233.485 681.669 233.485C681.047 233.485 680.739 235.219 680.986 237.338C681.341 240.379 680.966 241.068 679.21 240.608C677.987 240.289 676.963 238.706 676.933 237.092C676.852 232.636 674.908 225.425 673.788 225.425C672.545 225.425 670.836 237.363 671.846 238.997C672.255 239.66 671.612 240.201 670.417 240.201C669.223 240.201 668.593 240.764 669.017 241.452C670.447 243.765 667.42 244.206 659.498 242.836C645.86 240.477 645.697 240.411 646.255 237.51C646.538 236.035 646.137 234.828 645.362 234.828C644.586 234.828 644.3 233.922 644.726 232.813C645.15 231.705 644.913 230.799 644.198 230.799C643.483 230.799 642.978 230.345 643.077 229.791C643.476 227.553 641.14 220.052 640.045 220.052C639.399 220.052 638.87 221.866 638.87 224.082C638.87 227.991 635.525 230.07 635.089 226.433C634.393 220.629 633.029 216.023 632.006 216.023C631.351 216.023 630.77 216.477 630.712 217.03C630.656 217.583 630.346 219.246 630.021 220.724C629.698 222.202 629.314 224.468 629.167 225.761C629.021 227.055 628.225 228.112 627.398 228.112C624.874 228.112 624.045 226.444 625.622 224.542C626.735 223.2 626.696 222.739 625.466 222.739C624.551 222.739 624.16 221.842 624.59 220.724C625.014 219.616 624.795 218.709 624.104 218.709C623.412 218.709 623.169 217.864 623.567 216.83C623.963 215.797 623.631 214.546 622.831 214.051C622.03 213.555 621.715 212.6 622.13 211.928C622.545 211.255 622.164 209.355 621.281 207.705L619.676 204.704L618.577 207.677C617.085 211.711 614.856 211.447 615.312 207.291C615.513 205.444 615.211 203.933 614.641 203.933C614.069 203.933 613.768 202.407 613.972 200.543C614.453 196.168 612.323 194.827 610.92 198.621ZM320.716 229.619C320.716 230.268 318.903 230.799 316.688 230.799C312.101 230.799 311.63 229.834 315.006 227.364C317.364 225.639 320.716 226.964 320.716 229.619ZM474.423 226.769C474.88 227.508 474.612 228.112 473.831 228.112C473.05 228.112 472.41 227.508 472.41 226.769C472.41 226.03 472.675 225.425 473.002 225.425C473.328 225.425 473.967 226.03 474.423 226.769ZM305.553 230.22C305.401 230.326 303.217 230.807 300.697 231.287C296.224 232.14 296.173 232.1 298.488 229.541C300.415 227.411 301.323 227.211 303.342 228.473C304.708 229.326 305.703 230.112 305.553 230.22ZM597.255 229.455C598.883 230.508 598.69 230.761 596.248 230.778C594.586 230.789 593.228 230.194 593.228 229.455C593.228 227.772 594.652 227.772 597.255 229.455ZM638.199 230.799C637.743 231.537 636.765 232.142 636.027 232.142C635.289 232.142 635.058 231.537 635.514 230.799C635.971 230.06 636.948 229.455 637.686 229.455C638.425 229.455 638.656 230.06 638.199 230.799ZM629.11 231.61C628.664 232.056 627.505 232.104 626.537 231.716C625.466 231.287 625.784 230.969 627.348 230.905C628.763 230.847 629.555 231.164 629.11 231.61ZM303.84 234.675C304.244 235.329 303.072 236.151 301.234 236.503C297.803 237.16 296.573 235.586 299.572 234.374C302.171 233.325 303.045 233.387 303.84 234.675ZM318.031 234.828C319.659 235.881 319.466 236.134 317.024 236.151C315.362 236.162 314.003 235.567 314.003 234.828C314.003 233.145 315.428 233.145 318.031 234.828ZM290.511 236.172C290.967 236.91 290.737 237.515 289.998 237.515C289.26 237.515 288.283 236.91 287.826 236.172C287.37 235.433 287.601 234.828 288.339 234.828C289.077 234.828 290.055 235.433 290.511 236.172ZM438.849 245.665C424.681 246.99 396.925 251.087 397.592 251.754C397.863 252.025 411.335 251.592 427.528 250.792C521.303 246.157 635.82 259.15 730.695 285.188C740.222 287.802 748.25 289.706 748.536 289.42C748.822 289.134 741.027 286.105 731.216 282.689C676.443 263.625 612.341 251.074 541.685 245.577C521.772 244.028 455.735 244.085 438.849 245.665ZM693.546 245.043C693.1 245.489 691.942 245.537 690.974 245.149C689.903 244.72 690.221 244.402 691.785 244.337C693.2 244.28 693.992 244.597 693.546 245.043ZM142.844 251.02C115.296 253.558 116.507 254.483 147.543 254.611C205.655 254.85 267.212 263.581 344.208 282.506C375.986 290.318 421.928 303.602 450.595 313.269C460.379 316.568 468.382 319.051 468.382 318.787C468.382 318 454.04 311.611 436.164 304.435C377.444 280.866 299.269 261.545 230.636 253.637C204.029 250.571 161.481 249.303 142.844 251.02ZM466.369 268.61C428.557 270.515 428.147 271.806 465.026 272.848C501.103 273.868 521.658 275.25 550.27 278.58C597.865 284.121 654.7 296.74 704.497 312.821C713.642 315.775 721.352 317.965 721.628 317.688C722.498 316.819 693.735 305.065 675.137 298.691C609.831 276.309 533.087 265.251 466.369 268.61ZM200.568 277.704C196.571 278.338 199.313 278.815 211.308 279.569C281.048 283.948 335.559 295.485 417.706 323.253C430.811 327.683 441.534 331.068 441.534 330.774C441.534 329.807 426.292 322.516 409.265 315.335C363.474 296.026 311.547 282.705 263.185 277.861C248.39 276.38 209.521 276.282 200.568 277.704ZM496.573 287.691C530.57 292.444 589.201 302.505 589.201 303.586C589.201 304.117 586.332 304.296 582.824 303.983C579.316 303.67 566.782 303.111 554.969 302.741C543.155 302.372 520.856 301.115 505.414 299.947C479.608 297.998 477.167 298.002 475.21 299.996C473.263 301.98 473.351 302.387 476.234 304.752C480.86 308.548 490.068 310.904 515.135 314.707C555.17 320.783 562.51 322.346 600.869 332.97C640.589 343.972 663.46 349.439 662.369 347.674C660.579 344.775 580.479 320.396 553.626 314.577L538.86 311.377L566.379 312.124C581.515 312.534 601.333 312.238 610.419 311.467C630.959 309.724 636.787 307.22 628.789 303.573C617.102 298.244 535.083 287.587 487.847 285.257C474.935 284.621 475.268 284.713 496.573 287.691ZM130.091 298.045C122.339 298.708 114.486 299.473 112.64 299.747C110.794 300.021 130.813 300.337 157.126 300.447C227.609 300.744 276.324 304.253 318.601 312.077C358.275 319.419 358.109 319.479 299.309 318.969C222.69 318.305 193.635 320.1 188.914 325.793C187.558 327.428 187.68 328.122 189.566 329.503C192.6 331.722 202.55 332.571 245.54 334.281C284.028 335.811 306.276 338.126 322.007 342.238C327.516 343.678 332.252 344.626 332.533 344.347C332.812 344.066 327.398 342.033 320.502 339.828C305.255 334.953 285.5 332.402 240.17 329.458C221.343 328.234 205.773 327.08 205.57 326.895C203.943 325.392 249.164 324.803 304.541 325.605C373.321 326.602 377.097 326.38 377.097 321.354C377.097 318.548 370.056 315.858 352.461 311.947C304.777 301.344 267.488 297.77 199.226 297.257C168.954 297.028 137.844 297.383 130.091 298.045Z" fill="white"/>
</svg>
