<svg width="419" height="273" viewBox="0 0 419 273" fill="none" xmlns="http://www.w3.org/2000/svg">
<path fill-rule="evenodd" clip-rule="evenodd" d="M161.254 4.4579C124.021 14.1523 90.1598 33.8864 63.9558 61.1627C56.347 69.0833 50.6416 75.5659 51.2791 75.5659C55.4776 75.5659 165.837 14.3912 182.056 3.07435C186.607 -0.101935 186.607 -0.11612 182.056 0.0588946C179.541 0.153497 170.179 2.13305 161.254 4.4579ZM242.395 20.2826C181.606 43.6376 74.7035 87.2848 41.2013 102.426C28.7218 108.067 27.3308 109.516 21.12 123.364C12.6395 142.268 10.7501 148.883 13.8242 148.883C17.4315 148.883 193.664 57.5938 228.935 37.4529C255.858 22.08 274.843 9.62085 271.374 9.59956C270.737 9.5972 257.696 14.403 242.395 20.2826ZM284.125 50.5317C242.094 66.503 203.684 81.9563 153.14 103.228C89.3971 130.055 22.715 158.594 14.5382 162.548C5.57093 166.881 4.68765 169.114 1.493 195.475L0 207.773L15.7136 200.607C49.494 185.201 233.015 90.9909 271.854 69.1211C307.582 49.0015 328.544 35.698 324.696 35.5892C324.058 35.5727 305.802 42.2966 284.125 50.5317ZM321.218 83.6639C245.599 112.324 5.90248 213.158 0.646829 218.52C0.099703 219.076 0.382534 224.932 1.27045 231.53L2.88864 243.528L4.5 252.5C4.5 252.5 51.7243 234.365 84.5 218.52C127.381 197.79 106.349 208.433 197.188 161.683C303.894 106.766 372.85 68.0166 362.833 68.5984C361.622 68.6694 342.895 75.4477 321.218 83.6639ZM384.973 107.941C333.962 126.384 181.103 188.351 149.662 203.338L135.752 209.968L170.527 210.159L205.302 210.351L274.182 173.83C369.567 123.255 411.353 98.4053 384.973 107.941ZM386.132 156.196C372.106 161.366 335.159 175.871 304.026 188.427C255.468 208.009 248.217 211.564 253.022 213.418C256.104 214.61 262.05 217.072 266.237 218.891C270.424 220.712 275.587 222.2 277.708 222.2C283.937 222.2 395.124 161.465 409.315 150.311C415.595 145.375 415.206 145.475 386.132 156.196ZM368.744 212.562C342.605 222.689 317.108 232.755 312.084 234.933L302.95 238.89L311.382 244.734C316.018 247.951 321.052 250.581 322.565 250.581C326.379 250.581 406.876 205.67 414.617 199.226C418.076 196.345 419.863 194.025 418.588 194.07C417.313 194.112 394.883 202.435 368.744 212.562ZM386.132 256.725C370.831 262.612 357.466 268.278 356.434 269.317C355.4 270.355 359.051 271.824 364.548 272.58C373.052 273.751 376.613 272.758 388.45 265.911C428.144 242.956 427.593 240.773 386.132 256.725Z" fill="#FFEB79"/>
</svg>
