<svg width="48" height="48" viewBox="0 0 48 48" fill="none" xmlns="http://www.w3.org/2000/svg">
<path d="M42.44 24C43.4356 22.9047 43.9912 21.4801 44 20C44 18.4087 43.3679 16.8826 42.2426 15.7574C41.1174 14.6321 39.5913 14 38 14H27.64C27.9595 13.0964 28.0578 12.1293 27.9268 11.1799C27.7958 10.2304 27.4393 9.32612 26.887 8.54277C26.3347 7.75941 25.6028 7.11975 24.7526 6.67736C23.9023 6.23496 22.9585 6.00269 22 6H10C8.4087 6 6.88258 6.63214 5.75736 7.75736C4.63214 8.88258 4 10.4087 4 12C4.00882 13.4801 4.56442 14.9047 5.56 16C4.57609 17.1 4.03214 18.5241 4.03214 20C4.03214 21.4759 4.57609 22.9 5.56 24C4.57609 25.1 4.03214 26.5241 4.03214 28C4.03214 29.4759 4.57609 30.9 5.56 32C4.56442 33.0953 4.00882 34.5199 4 36C4 37.5913 4.63214 39.1174 5.75736 40.2426C6.88258 41.3679 8.4087 42 10 42H38C39.1555 41.9938 40.2847 41.6541 41.2518 41.0217C42.2189 40.3892 42.9828 39.491 43.4517 38.4349C43.9206 37.3788 44.0746 36.2097 43.8951 35.0682C43.7157 33.9267 43.2104 32.8613 42.44 32C43.4239 30.9 43.9679 29.4759 43.9679 28C43.9679 26.5241 43.4239 25.1 42.44 24ZM22 38H10C9.46957 38 8.96086 37.7893 8.58579 37.4142C8.21071 37.0391 8 36.5304 8 36C8 35.4696 8.21071 34.9609 8.58579 34.5858C8.96086 34.2107 9.46957 34 10 34H22C22.5304 34 23.0391 34.2107 23.4142 34.5858C23.7893 34.9609 24 35.4696 24 36C24 36.5304 23.7893 37.0391 23.4142 37.4142C23.0391 37.7893 22.5304 38 22 38ZM22 30H10C9.46957 30 8.96086 29.7893 8.58579 29.4142C8.21071 29.0391 8 28.5304 8 28C8 27.4696 8.21071 26.9609 8.58579 26.5858C8.96086 26.2107 9.46957 26 10 26H22C22.5304 26 23.0391 26.2107 23.4142 26.5858C23.7893 26.9609 24 27.4696 24 28C24 28.5304 23.7893 29.0391 23.4142 29.4142C23.0391 29.7893 22.5304 30 22 30ZM22 22H10C9.46957 22 8.96086 21.7893 8.58579 21.4142C8.21071 21.0391 8 20.5304 8 20C8 19.4696 8.21071 18.9609 8.58579 18.5858C8.96086 18.2107 9.46957 18 10 18H22C22.5304 18 23.0391 18.2107 23.4142 18.5858C23.7893 18.9609 24 19.4696 24 20C24 20.5304 23.7893 21.0391 23.4142 21.4142C23.0391 21.7893 22.5304 22 22 22ZM22 14H10C9.46957 14 8.96086 13.7893 8.58579 13.4142C8.21071 13.0391 8 12.5304 8 12C8 11.4696 8.21071 10.9609 8.58579 10.5858C8.96086 10.2107 9.46957 10 10 10H22C22.5304 10 23.0391 10.2107 23.4142 10.5858C23.7893 10.9609 24 11.4696 24 12C24 12.5304 23.7893 13.0391 23.4142 13.4142C23.0391 13.7893 22.5304 14 22 14ZM39.38 37.42C39.2027 37.607 38.9885 37.7551 38.7509 37.855C38.5134 37.9548 38.2577 38.0042 38 38H27.64C28.1196 36.7098 28.1196 35.2902 27.64 34H38C38.5304 34 39.0391 34.2107 39.4142 34.5858C39.7893 34.9609 40 35.4696 40 36C39.9963 36.266 39.9396 36.5287 39.8331 36.7725C39.7266 37.0163 39.5726 37.2364 39.38 37.42ZM39.38 29.42C39.2027 29.607 38.9885 29.7551 38.7509 29.855C38.5134 29.9548 38.2577 30.0042 38 30H27.64C28.1196 28.7098 28.1196 27.2902 27.64 26H38C38.5304 26 39.0391 26.2107 39.4142 26.5858C39.7893 26.9609 40 27.4696 40 28C39.9963 28.266 39.9396 28.5287 39.8331 28.7725C39.7266 29.0163 39.5726 29.2364 39.38 29.42ZM39.38 21.42C39.2027 21.607 38.9885 21.7551 38.7509 21.855C38.5134 21.9548 38.2577 22.0042 38 22H27.64C28.1196 20.7098 28.1196 19.2902 27.64 18H38C38.5304 18 39.0391 18.2107 39.4142 18.5858C39.7893 18.9609 40 19.4696 40 20C39.9963 20.266 39.9396 20.5287 39.8331 20.7725C39.7266 21.0163 39.5726 21.2364 39.38 21.42Z" fill="#2E8BF8"/>
</svg>
