<svg width="48" height="48" viewBox="0 0 48 48" fill="none" xmlns="http://www.w3.org/2000/svg">
<path d="M35.9999 8.96007C32.8173 5.77747 28.5007 3.9895 23.9999 3.9895C19.499 3.9895 15.1825 5.77747 11.9999 8.96007C8.81726 12.1427 7.0293 16.4592 7.0293 20.9601C7.0293 25.4609 8.81726 29.7775 11.9999 32.9601L22.5399 43.5201C22.7258 43.7075 22.947 43.8563 23.1907 43.9579C23.4344 44.0594 23.6958 44.1117 23.9599 44.1117C24.2239 44.1117 24.4853 44.0594 24.729 43.9579C24.9727 43.8563 25.1939 43.7075 25.3799 43.5201L35.9999 32.8601C39.1692 29.6907 40.9496 25.3922 40.9496 20.9101C40.9496 16.428 39.1692 12.1294 35.9999 8.96007ZM33.1399 30.0001L23.9999 39.1801L14.8599 30.0001C13.0541 28.1927 11.8248 25.8906 11.3272 23.3846C10.8297 20.8787 11.0862 18.2816 12.0645 15.9214C13.0427 13.5613 14.6987 11.5442 16.8231 10.125C18.9475 8.70587 21.445 7.94843 23.9999 7.94843C26.5547 7.94843 29.0522 8.70587 31.1766 10.125C33.301 11.5442 34.957 13.5613 35.9352 15.9214C36.9135 18.2816 37.17 20.8787 36.6725 23.3846C36.1749 25.8906 34.9456 28.1927 33.1399 30.0001ZM17.9999 14.8201C16.3853 16.4396 15.4786 18.6332 15.4786 20.9201C15.4786 23.2069 16.3853 25.4005 17.9999 27.0201C19.1994 28.2216 20.727 29.0422 22.3912 29.3789C24.0553 29.7155 25.7818 29.5532 27.354 28.9124C28.9262 28.2715 30.2742 27.1806 31.2288 25.7766C32.1834 24.3725 32.7021 22.7178 32.7199 21.0201C32.7289 19.8865 32.5105 18.7626 32.0777 17.7148C31.6448 16.6671 31.0063 15.7168 30.1999 14.9201C29.4072 14.1092 28.462 13.4631 27.4187 13.019C26.3754 12.5749 25.2545 12.3414 24.1207 12.3321C22.9868 12.3228 21.8623 12.5379 20.8118 12.9648C19.7613 13.3918 18.8057 14.0223 17.9999 14.8201ZM27.3799 24.1801C26.6219 24.9496 25.6203 25.4319 24.5461 25.5446C23.4719 25.6573 22.392 25.3933 21.4909 24.7979C20.5898 24.2025 19.9235 23.3126 19.6059 22.2802C19.2883 21.2479 19.3392 20.1373 19.7498 19.1384C20.1604 18.1394 20.9053 17.3141 21.857 16.8035C22.8088 16.293 23.9084 16.1289 24.9677 16.3393C26.0271 16.5497 26.9805 17.1216 27.6649 17.9571C28.3493 18.7927 28.7222 19.84 28.7199 20.9201C28.6908 22.1546 28.1728 23.3271 27.2799 24.1801H27.3799Z" fill="#2E8BF8"/>
</svg>
