<svg width="18" height="18" viewBox="0 0 18 18" fill="none" xmlns="http://www.w3.org/2000/svg">
<path d="M15.915 9C16.2883 8.58927 16.4967 8.05504 16.5 7.5C16.5 6.90326 16.2629 6.33097 15.841 5.90901C15.419 5.48705 14.8467 5.25 14.25 5.25H10.365C10.4848 4.91113 10.5217 4.54849 10.4726 4.19245C10.4234 3.8364 10.2897 3.4973 10.0826 3.20354C9.87552 2.90978 9.60106 2.66991 9.28222 2.50401C8.96337 2.33811 8.60942 2.25101 8.25 2.25H3.75C3.15326 2.25 2.58097 2.48705 2.15901 2.90901C1.73705 3.33097 1.5 3.90326 1.5 4.5C1.50331 5.05504 1.71166 5.58927 2.085 6C1.71603 6.41252 1.51205 6.94655 1.51205 7.5C1.51205 8.05345 1.71603 8.58748 2.085 9C1.71603 9.41252 1.51205 9.94655 1.51205 10.5C1.51205 11.0534 1.71603 11.5875 2.085 12C1.71166 12.4107 1.50331 12.945 1.5 13.5C1.5 14.0967 1.73705 14.669 2.15901 15.091C2.58097 15.5129 3.15326 15.75 3.75 15.75H14.25C14.6833 15.7477 15.1068 15.6203 15.4694 15.3831C15.8321 15.146 16.1185 14.8091 16.2944 14.4131C16.4702 14.017 16.528 13.5786 16.4607 13.1506C16.3934 12.7225 16.2039 12.323 15.915 12C16.284 11.5875 16.4879 11.0534 16.4879 10.5C16.4879 9.94655 16.284 9.41252 15.915 9ZM8.25 14.25H3.75C3.55109 14.25 3.36032 14.171 3.21967 14.0303C3.07902 13.8897 3 13.6989 3 13.5C3 13.3011 3.07902 13.1103 3.21967 12.9697C3.36032 12.829 3.55109 12.75 3.75 12.75H8.25C8.44891 12.75 8.63968 12.829 8.78033 12.9697C8.92098 13.1103 9 13.3011 9 13.5C9 13.6989 8.92098 13.8897 8.78033 14.0303C8.63968 14.171 8.44891 14.25 8.25 14.25ZM8.25 11.25H3.75C3.55109 11.25 3.36032 11.171 3.21967 11.0303C3.07902 10.8897 3 10.6989 3 10.5C3 10.3011 3.07902 10.1103 3.21967 9.96967C3.36032 9.82902 3.55109 9.75 3.75 9.75H8.25C8.44891 9.75 8.63968 9.82902 8.78033 9.96967C8.92098 10.1103 9 10.3011 9 10.5C9 10.6989 8.92098 10.8897 8.78033 11.0303C8.63968 11.171 8.44891 11.25 8.25 11.25ZM8.25 8.25H3.75C3.55109 8.25 3.36032 8.17098 3.21967 8.03033C3.07902 7.88968 3 7.69891 3 7.5C3 7.30109 3.07902 7.11032 3.21967 6.96967C3.36032 6.82902 3.55109 6.75 3.75 6.75H8.25C8.44891 6.75 8.63968 6.82902 8.78033 6.96967C8.92098 7.11032 9 7.30109 9 7.5C9 7.69891 8.92098 7.88968 8.78033 8.03033C8.63968 8.17098 8.44891 8.25 8.25 8.25ZM8.25 5.25H3.75C3.55109 5.25 3.36032 5.17098 3.21967 5.03033C3.07902 4.88968 3 4.69891 3 4.5C3 4.30109 3.07902 4.11032 3.21967 3.96967C3.36032 3.82902 3.55109 3.75 3.75 3.75H8.25C8.44891 3.75 8.63968 3.82902 8.78033 3.96967C8.92098 4.11032 9 4.30109 9 4.5C9 4.69891 8.92098 4.88968 8.78033 5.03033C8.63968 5.17098 8.44891 5.25 8.25 5.25ZM14.7675 14.0325C14.701 14.1026 14.6207 14.1582 14.5316 14.1956C14.4425 14.233 14.3466 14.2516 14.25 14.25H10.365C10.5449 13.7662 10.5449 13.2338 10.365 12.75H14.25C14.4489 12.75 14.6397 12.829 14.7803 12.9697C14.921 13.1103 15 13.3011 15 13.5C14.9986 13.5998 14.9773 13.6982 14.9374 13.7897C14.8975 13.8811 14.8397 13.9637 14.7675 14.0325V14.0325ZM14.7675 11.0325C14.701 11.1026 14.6207 11.1582 14.5316 11.1956C14.4425 11.233 14.3466 11.2516 14.25 11.25H10.365C10.5449 10.7662 10.5449 10.2338 10.365 9.75H14.25C14.4489 9.75 14.6397 9.82902 14.7803 9.96967C14.921 10.1103 15 10.3011 15 10.5C14.9986 10.5998 14.9773 10.6982 14.9374 10.7897C14.8975 10.8811 14.8397 10.9637 14.7675 11.0325V11.0325ZM14.7675 8.0325C14.701 8.10262 14.6207 8.15817 14.5316 8.19561C14.4425 8.23305 14.3466 8.25157 14.25 8.25H10.365C10.5449 7.76617 10.5449 7.23383 10.365 6.75H14.25C14.4489 6.75 14.6397 6.82902 14.7803 6.96967C14.921 7.11032 15 7.30109 15 7.5C14.9986 7.59976 14.9773 7.69824 14.9374 7.78968C14.8975 7.88112 14.8397 7.96367 14.7675 8.0325V8.0325Z" fill="#2E8BF8"/>
</svg>
