<svg width="48" height="48" viewBox="0 0 48 48" fill="none" xmlns="http://www.w3.org/2000/svg">
<path d="M18 20H20C20.5304 20 21.0391 19.7893 21.4142 19.4142C21.7893 19.0391 22 18.5304 22 18C22 17.4696 21.7893 16.9609 21.4142 16.5858C21.0391 16.2107 20.5304 16 20 16H18C17.4696 16 16.9609 16.2107 16.5858 16.5858C16.2107 16.9609 16 17.4696 16 18C16 18.5304 16.2107 19.0391 16.5858 19.4142C16.9609 19.7893 17.4696 20 18 20ZM30 24H18C17.4696 24 16.9609 24.2107 16.5858 24.5858C16.2107 24.9609 16 25.4696 16 26C16 26.5304 16.2107 27.0391 16.5858 27.4142C16.9609 27.7893 17.4696 28 18 28H30C30.5304 28 31.0391 27.7893 31.4142 27.4142C31.7893 27.0391 32 26.5304 32 26C32 25.4696 31.7893 24.9609 31.4142 24.5858C31.0391 24.2107 30.5304 24 30 24ZM30 32H18C17.4696 32 16.9609 32.2107 16.5858 32.5858C16.2107 32.9609 16 33.4696 16 34C16 34.5304 16.2107 35.0391 16.5858 35.4142C16.9609 35.7893 17.4696 36 18 36H30C30.5304 36 31.0391 35.7893 31.4142 35.4142C31.7893 35.0391 32 34.5304 32 34C32 33.4696 31.7893 32.9609 31.4142 32.5858C31.0391 32.2107 30.5304 32 30 32ZM39.42 40.58C39.325 40.494 39.2248 40.4138 39.12 40.34C39.0085 40.2643 38.8874 40.2038 38.76 40.16L38.4 40C38.01 39.9239 37.6062 39.9657 37.24 40.12C36.9918 40.2098 36.7664 40.3531 36.5798 40.5398C36.3931 40.7264 36.2498 40.9518 36.16 41.2C36.0417 41.4495 35.9868 41.7242 36 42C35.9965 42.2975 36.0594 42.5921 36.1842 42.8622C36.309 43.1323 36.4925 43.3712 36.7213 43.5614C36.9501 43.7517 37.2184 43.8884 37.5068 43.9618C37.7952 44.0351 38.0963 44.0432 38.3882 43.9855C38.6801 43.9277 38.9554 43.8055 39.1941 43.6278C39.4327 43.4502 39.6288 43.2215 39.7679 42.9585C39.907 42.6954 39.9856 42.4047 39.9981 42.1074C40.0106 41.8101 39.9566 41.5138 39.84 41.24C39.7387 40.9976 39.5967 40.7744 39.42 40.58ZM40 17.88C39.9792 17.6963 39.9389 17.5153 39.88 17.34V17.16C39.7838 16.9544 39.6556 16.7653 39.5 16.6L27.5 4.6C27.3347 4.44443 27.1456 4.31616 26.94 4.22C26.8803 4.21152 26.8197 4.21152 26.76 4.22C26.5568 4.10348 26.3324 4.02869 26.1 4H14C12.4087 4 10.8826 4.63214 9.75736 5.75736C8.63214 6.88258 8 8.4087 8 10V38C8 39.5913 8.63214 41.1174 9.75736 42.2426C10.8826 43.3679 12.4087 44 14 44H30C30.5304 44 31.0391 43.7893 31.4142 43.4142C31.7893 43.0391 32 42.5304 32 42C32 41.4696 31.7893 40.9609 31.4142 40.5858C31.0391 40.2107 30.5304 40 30 40H14C13.4696 40 12.9609 39.7893 12.5858 39.4142C12.2107 39.0391 12 38.5304 12 38V10C12 9.46957 12.2107 8.96086 12.5858 8.58579C12.9609 8.21071 13.4696 8 14 8H24V14C24 15.5913 24.6321 17.1174 25.7574 18.2426C26.8826 19.3679 28.4087 20 30 20H36V24C36 24.5304 36.2107 25.0391 36.5858 25.4142C36.9609 25.7893 37.4696 26 38 26C38.5304 26 39.0391 25.7893 39.4142 25.4142C39.7893 25.0391 40 24.5304 40 24V18C40 18 40 18 40 17.88ZM30 16C29.4696 16 28.9609 15.7893 28.5858 15.4142C28.2107 15.0391 28 14.5304 28 14V10.82L33.18 16H30ZM38 30C37.4696 30 36.9609 30.2107 36.5858 30.5858C36.2107 30.9609 36 31.4696 36 32V36C36 36.5304 36.2107 37.0391 36.5858 37.4142C36.9609 37.7893 37.4696 38 38 38C38.5304 38 39.0391 37.7893 39.4142 37.4142C39.7893 37.0391 40 36.5304 40 36V32C40 31.4696 39.7893 30.9609 39.4142 30.5858C39.0391 30.2107 38.5304 30 38 30Z" fill="#2E8BF8"/>
</svg>
