<svg width="48" height="48" viewBox="0 0 48 48" fill="none" xmlns="http://www.w3.org/2000/svg">
<path d="M42.2996 5.72002C41.5355 4.94114 40.5665 4.39445 39.5048 4.14317C38.443 3.89188 37.3318 3.94626 36.2996 4.30002L7.99961 13.76C6.85824 14.1336 5.86099 14.8523 5.14552 15.8169C4.43005 16.7815 4.03164 17.9444 4.0053 19.145C3.97896 20.3457 4.32598 21.5249 4.99847 22.52C5.67095 23.515 6.63572 24.2767 7.75961 24.7L18.2396 28.7C18.4782 28.7913 18.6955 28.9307 18.8779 29.1096C19.0603 29.2886 19.2038 29.5032 19.2996 29.74L23.2996 40.24C23.7068 41.348 24.4456 42.3035 25.4155 42.9764C26.3854 43.6492 27.5392 44.0067 28.7196 44H28.8596C30.0616 43.9781 31.2267 43.5807 32.1915 42.8634C33.1563 42.146 33.8725 41.1448 34.2396 40L43.6996 11.66C44.0437 10.6379 44.0949 9.5399 43.8475 8.49019C43.6001 7.44048 43.0639 6.48092 42.2996 5.72002ZM39.9996 10.4L30.4396 38.76C30.3286 39.119 30.1056 39.433 29.8034 39.6561C29.5011 39.8792 29.1353 39.9997 28.7596 40C28.3861 40.0061 28.0196 39.8984 27.7088 39.6912C27.398 39.484 27.1576 39.1871 27.0196 38.84L23.0196 28.34C22.7296 27.5771 22.2824 26.8836 21.707 26.3048C21.1316 25.7259 20.4408 25.2746 19.6796 24.98L9.17961 20.98C8.8254 20.8502 8.52091 20.6124 8.30918 20.3002C8.09744 19.988 7.98915 19.6171 7.99961 19.24C7.99991 18.8643 8.12044 18.4986 8.34356 18.1963C8.56668 17.894 8.88067 17.671 9.23961 17.56L37.5996 8.10002C37.9252 7.96731 38.2823 7.93176 38.6277 7.99767C38.973 8.06358 39.2919 8.22811 39.5458 8.47139C39.7997 8.71467 39.9776 9.02628 40.0581 9.36854C40.1387 9.7108 40.1183 10.0691 39.9996 10.4Z" fill="#2E8BF8"/>
</svg>
