<svg width="48" height="48" viewBox="0 0 48 48" fill="none" xmlns="http://www.w3.org/2000/svg">
<path d="M43.9996 10.1599C44.0013 8.94035 43.6409 7.74774 42.9642 6.73317C42.2874 5.71861 41.3247 4.92777 40.1981 4.46083C39.0715 3.9939 37.8316 3.8719 36.6356 4.11028C35.4395 4.34867 34.3412 4.93671 33.4796 5.79991L27.8596 11.4199L14.8796 7.09991C14.534 6.99129 14.1655 6.97857 13.8132 7.06311C13.461 7.14765 13.1383 7.32628 12.8796 7.57991L8.11963 12.2999C7.89409 12.5281 7.72675 12.8071 7.63172 13.1136C7.5367 13.42 7.51678 13.7448 7.57365 14.0605C7.63052 14.3762 7.76251 14.6736 7.95849 14.9277C8.15446 15.1817 8.40866 15.3848 8.69963 15.5199L19.0596 20.2199L13.8596 25.4199L10.4396 23.6999C10.0704 23.5001 9.64759 23.4215 9.2312 23.4753C8.8148 23.5292 8.42591 23.7127 8.11963 23.9999L4.57963 27.6199C4.20713 27.9946 3.99805 28.5015 3.99805 29.0299C3.99805 29.5583 4.20713 30.0652 4.57963 30.4399L17.5596 43.4199C17.9344 43.7924 18.4413 44.0015 18.9696 44.0015C19.498 44.0015 20.0049 43.7924 20.3796 43.4199L23.9996 39.8799C24.2998 39.5828 24.4982 39.1984 24.5665 38.7816C24.6348 38.3649 24.5693 37.9372 24.3796 37.5599L22.6596 34.1399L27.8596 28.9399L32.5596 39.2999C32.6948 39.5909 32.8979 39.8451 33.1519 40.0411C33.4059 40.237 33.7033 40.369 34.0191 40.4259C34.3348 40.4828 34.6596 40.4628 34.966 40.3678C35.2724 40.2728 35.5515 40.1054 35.7796 39.8799L40.4996 35.1599C40.7533 34.9013 40.9319 34.5786 41.0164 34.2263C41.101 33.8741 41.0883 33.5055 40.9796 33.1599L36.6596 20.1799L42.1996 14.5199C42.7741 13.949 43.2291 13.2695 43.5381 12.5209C43.8472 11.7724 44.004 10.9698 43.9996 10.1599ZM39.3596 11.6999L32.8796 18.1799C32.626 18.4386 32.4474 18.7612 32.3628 19.1135C32.2783 19.4657 32.291 19.8343 32.3996 20.1799L36.7196 33.1399L34.9196 34.9399L30.2196 24.5999C30.0862 24.3062 29.8838 24.0492 29.6296 23.8507C29.3753 23.6522 29.0769 23.5181 28.7596 23.4599C28.4398 23.4015 28.1105 23.422 27.8003 23.5196C27.4902 23.6172 27.2085 23.7889 26.9796 24.0199L18.7396 32.3399C18.4438 32.6354 18.248 33.0163 18.1799 33.4288C18.1117 33.8414 18.1746 34.2649 18.3596 34.6399L19.9996 37.9999L18.8796 39.1199L8.81963 29.0399L9.99963 27.9999L13.4196 29.7199C13.7946 29.905 14.2182 29.9678 14.6307 29.8997C15.0433 29.8315 15.4241 29.6357 15.7196 29.3399L23.9996 21.0199C24.2294 20.7919 24.4005 20.5115 24.498 20.2028C24.5956 19.8942 24.6167 19.5664 24.5597 19.2477C24.5026 18.9291 24.3691 18.629 24.1705 18.3734C23.9719 18.1177 23.7143 17.914 23.4196 17.7799L12.9996 13.0799L14.7996 11.2799L27.7596 15.5999C28.1052 15.7085 28.4738 15.7212 28.8261 15.6367C29.1783 15.5522 29.501 15.3735 29.7596 15.1199L36.2396 8.63991C36.4389 8.43612 36.6769 8.27419 36.9397 8.16364C37.2024 8.05309 37.4846 7.99614 37.7696 7.99614C38.0547 7.99614 38.3369 8.05309 38.5996 8.16364C38.8623 8.27419 39.1003 8.43612 39.2996 8.63991C39.5082 8.8332 39.6732 9.06876 39.7836 9.33087C39.894 9.59298 39.9472 9.87561 39.9396 10.1599C39.9505 10.4423 39.9048 10.724 39.8052 10.9885C39.7055 11.253 39.5541 11.4948 39.3596 11.6999Z" fill="#2E8BF8"/>
</svg>
