<svg width="24" height="24" viewBox="0 0 24 24" fill="none" xmlns="http://www.w3.org/2000/svg">
<path d="M12 24C18.6274 24 24 18.6274 24 12C24 5.37258 18.6274 0 12 0C5.37258 0 0 5.37258 0 12C0 18.6274 5.37258 24 12 24Z" fill="#039BE5"/>
<path d="M5.49077 11.7401L17.0608 7.27909C17.5978 7.08509 18.0668 7.41009 17.8928 8.22209L17.8938 8.22109L15.9238 17.5021C15.7778 18.1601 15.3868 18.3201 14.8398 18.0101L11.8398 15.7991L10.3928 17.1931C10.2328 17.3531 10.0978 17.4881 9.78777 17.4881L10.0008 14.4351L15.5608 9.41209C15.8028 9.19909 15.5068 9.07909 15.1878 9.29109L8.31678 13.6171L5.35477 12.6931C4.71177 12.4891 4.69777 12.0501 5.49077 11.7401Z" fill="white"/>
</svg>
