<svg width="24" height="24" viewBox="0 0 24 24" fill="none" xmlns="http://www.w3.org/2000/svg">
<g clip-path="url(#clip0)">
<path d="M23.1546 13.8929C23.8706 7.8659 22.8106 4.0609 20.8986 2.3399L20.8996 2.3389C17.8136 -0.600097 7.39159 -1.0351 3.69959 2.4709C2.04159 4.1859 1.45759 6.7029 1.39359 9.8189C1.32959 12.9359 1.25359 18.7749 6.69459 20.3589H6.69959L6.69459 22.7779C6.69459 22.7779 6.65759 23.7579 7.28359 23.9549C7.99959 24.1869 8.32359 23.7319 10.5506 21.0719C14.2746 21.3949 17.1346 20.6549 17.4596 20.5469C18.2116 20.2949 22.4666 19.7319 23.1546 13.8929ZM10.9176 19.3699C10.9176 19.3699 8.56059 22.3089 7.82759 23.0719C7.58759 23.3199 7.32459 23.2969 7.32859 22.8049C7.32859 22.4819 7.34659 18.7889 7.34659 18.7889C2.73359 17.4669 3.00559 12.4949 3.05559 9.8939C3.10559 7.2919 3.58159 5.1609 4.98559 3.7259C8.22459 0.688903 17.3616 1.3679 19.6896 3.5559C22.5356 6.0789 21.5226 13.2069 21.5286 13.4499C20.9436 18.3239 17.4956 18.6329 16.8616 18.8439C16.5906 18.9339 14.0756 19.5809 10.9176 19.3699Z" fill="#8E24AA"/>
<path d="M12.2219 4.29688C11.8369 4.29688 11.8369 4.89688 12.2219 4.90188C15.2089 4.92488 17.6689 7.00688 17.6959 10.8259C17.6959 11.2289 18.2859 11.2239 18.2809 10.8209H18.2799C18.2479 6.70588 15.5619 4.31988 12.2219 4.29688Z" fill="#8E24AA"/>
<path d="M16.151 10.1929C16.142 10.5909 16.731 10.6099 16.736 10.2069C16.785 7.93791 15.3859 6.06891 12.7569 5.87191C12.3719 5.84391 12.3319 6.44891 12.7159 6.47691C14.9959 6.64991 16.197 8.20591 16.151 10.1929Z" fill="#8E24AA"/>
<path d="M15.5207 12.7739C15.0267 12.4879 14.5237 12.6659 14.3157 12.9469L13.8807 13.5099C13.6597 13.7959 13.2467 13.7579 13.2467 13.7579C10.2327 12.9609 9.42672 9.80686 9.42672 9.80686C9.42672 9.80686 9.38972 9.37986 9.66572 9.15086L10.2097 8.70086C10.4817 8.48486 10.6537 7.96486 10.3767 7.45386C9.63672 6.11686 9.13972 5.65586 8.88672 5.30186C8.62072 4.96886 8.22072 4.89386 7.80472 5.11886H7.79572C6.93072 5.62486 5.98373 6.57186 6.28673 7.54686C6.80372 8.57486 7.75372 11.8519 10.7817 14.3279C12.2047 15.4989 14.4567 16.6989 15.4127 16.9759L15.4217 16.9899C16.3637 17.3039 17.2797 16.3199 17.7687 15.4289V15.4219C17.9857 14.9909 17.9137 14.5829 17.5967 14.3159C17.0347 13.7679 16.1867 13.1629 15.5207 12.7739Z" fill="#8E24AA"/>
<path d="M13.1689 8.10393C14.1299 8.15993 14.5959 8.66193 14.6459 9.69294C14.6639 10.0959 15.2489 10.0679 15.2309 9.66494C15.1669 8.31893 14.4649 7.56893 13.2009 7.49893C12.8159 7.47593 12.7799 8.08093 13.1689 8.10393Z" fill="#8E24AA"/>
</g>
<defs>
<clipPath id="clip0">
<rect width="24" height="24" fill="white"/>
</clipPath>
</defs>
</svg>
